# xmcd
#
# Track frame offsets:
#	150
#	21412
#	35090
#	51567
#	68495
#	84607
#	95187
#	109120
#	127157
#	140025
#	155357
#	165225
#	181382
#	203027
#
# Disc length: 2905 seconds
#
# Revision: 1
# Processed by: cddbd v1.5.1PL0 Copyright (c) Steve Scherf et al.
# Submitted via: CDex 1.50Beta5
#
DISCID=cb0b570e
DTITLE=天童よしみ - 美しい島々!美ら!島唄全曲集
DYEAR=2002
DGENRE=World
TTITLE0=天童よしみ/花
TTITLE1=田端義夫/デイゴの花
TTITLE2=天童よしみ/島のブルース
TTITLE3=三波春夫/沖縄月夜
TTITLE4=天津羽衣/沖縄の月
TTITLE5=川田公子/てィんさぐぬ花
TTITLE6=川田功子/安里屋ユンタ
TTITLE7=田端義夫/十九の春
TTITLE8=三波春夫/沖縄夜曲
TTITLE9=田端義夫/島の船唄
TTITLE10=川田房枝/谷茶前節
TTITLE11=田端義夫/島育ち
TTITLE12=山本譲二/いつまでも…沖縄
TTITLE13=田端義夫/沖縄育ち
EXTD=
EXTT0=
EXTT1=
EXTT2=
EXTT3=
EXTT4=
EXTT5=
EXTT6=
EXTT7=
EXTT8=
EXTT9=
EXTT10=
EXTT11=
EXTT12=
EXTT13=
PLAYORDER=
